<?xml version="1.0" encoding="UTF-8"?>
<!DOCTYPE svg>
<svg width="559.9568924638963" height="949.9344315263967" viewBox="143.26700173738823 82.97258613596696 559.9568924638963 949.9344315263967" xmlns="http://www.w3.org/2000/svg" xmlns:xlink="http://www.w3.org/1999/xlink">
<path d=" M217.848 740.957 L195.348 779.928" style="stroke: #008f51; stroke-opacity: 1.0" stroke-width="3px" stroke-linecap="round" /><path d=" M256.82 394.63 L256.82 439.63" style="stroke: #008f51; stroke-opacity: 1.0" stroke-width="3px" stroke-linecap="round" /><path d=" M412.704 169.63 L412.704 124.63" style="stroke: #000000; stroke-opacity: 1.0" stroke-width="3px" stroke-linecap="round" /><path d=" M373.733 192.13 L412.704 169.63" style="stroke: #000000; stroke-opacity: 1.0" stroke-width="3px" stroke-linecap="round" /><path d=" M305.901 456.293 L334.762 439.63" style="stroke: #011892; stroke-opacity: 1.0" stroke-width="3px" stroke-linecap="round" /><path d=" M195.348 935.812 L217.848 974.784" style="stroke: #008f51; stroke-opacity: 1.0" stroke-width="3px" stroke-linecap="round" /><path d=" M334.762 259.63 L295.791 237.13" style="stroke: #000000; stroke-opacity: 1.0" stroke-width="3px" stroke-linecap="round" /><path d=" M373.733 663.014 L351.233 701.986" style="stroke: #011892; stroke-opacity: 1.0" stroke-width="3px" stroke-linecap="round" /><path d=" M195.348 857.87 L217.848 896.841" style="stroke: #008f51; stroke-opacity: 1.0" stroke-width="3px" stroke-linecap="round" /><path d=" M373.733 818.899 L351.233 857.87" style="stroke: #011892; stroke-opacity: 1.0" stroke-width="3px" stroke-linecap="round" /><path d=" M490.646 124.63 L490.646 169.63" style="stroke: #ff40ff; stroke-opacity: 1.0" stroke-width="3px" stroke-linecap="round" /><path d=" M351.233 701.986 L373.733 740.957" style="stroke: #011892; stroke-opacity: 1.0" stroke-width="3px" stroke-linecap="round" /><path d=" M195.348 779.928 L217.848 818.899" style="stroke: #008f51; stroke-opacity: 1.0" stroke-width="3px" stroke-linecap="round" /><path d=" M351.233 624.043 L373.733 663.014" style="stroke: #011892; stroke-opacity: 1.0" stroke-width="3px" stroke-linecap="round" /><path d=" M646.531 169.63 L685.502 192.13" style="stroke: #ff40ff; stroke-opacity: 1.0" stroke-width="3px" stroke-linecap="round" /><path d=" M256.82 304.63 L295.791 327.13" style="stroke: #000000; stroke-opacity: 1.0" stroke-width="3px" stroke-linecap="round" /><path d=" M351.233 935.812 L373.733 974.784" style="stroke: #011892; stroke-opacity: 1.0" stroke-width="3px" stroke-linecap="round" /><path d=" M490.646 259.63 L451.675 237.13" style="stroke: #ff40ff; stroke-opacity: 1.0" stroke-width="3px" stroke-linecap="round" /><path d=" M217.848 663.014 L195.348 701.986" style="stroke: #008f51; stroke-opacity: 1.0" stroke-width="3px" stroke-linecap="round" /><path d=" M195.348 701.986 L217.848 740.957" style="stroke: #008f51; stroke-opacity: 1.0" stroke-width="3px" stroke-linecap="round" /><path d=" M217.848 507.13 L195.348 546.101" style="stroke: #008f51; stroke-opacity: 1.0" stroke-width="3px" stroke-linecap="round" /><path d=" M217.848 974.784 L195.348 1013.75" style="stroke: #008f51; stroke-opacity: 1.0" stroke-width="3px" stroke-linecap="round" /><path d=" M490.646 304.63 L490.646 259.63" style="stroke: #ff40ff; stroke-opacity: 1.0" stroke-width="3px" stroke-linecap="round" /><path d=" M373.733 507.13 L351.233 546.101" style="stroke: #011892; stroke-opacity: 1.0" stroke-width="3px" stroke-linecap="round" /><path d=" M256.82 270.148 L256.82 304.63" style="stroke: #000000; stroke-opacity: 1.0" stroke-width="3px" stroke-linecap="round" /><path d=" M295.791 327.13 L295.791 361.611" style="stroke: #000000; stroke-opacity: 1.0" stroke-width="3px" stroke-linecap="round" /><path d=" M195.348 546.101 L217.848 585.072" style="stroke: #008f51; stroke-opacity: 1.0" stroke-width="3px" stroke-linecap="round" /><path d=" M373.733 102.13 L345.652 118.343" style="stroke: #000000; stroke-opacity: 1.0" stroke-width="3px" stroke-linecap="round" /><path d=" M256.82 439.63 L217.848 462.13" style="stroke: #008f51; stroke-opacity: 1.0" stroke-width="3px" stroke-linecap="round" /><path d=" M351.233 546.101 L373.733 585.072" style="stroke: #011892; stroke-opacity: 1.0" stroke-width="3px" stroke-linecap="round" /><path d=" M412.704 124.63 L440.786 108.417" style="stroke: #000000; stroke-opacity: 1.0" stroke-width="3px" stroke-linecap="round" /><path d=" M568.589 169.63 L568.589 124.63" style="stroke: #ff40ff; stroke-opacity: 1.0" stroke-width="3px" stroke-linecap="round" /><path d=" M568.589 259.63 L607.56 237.13" style="stroke: #ff40ff; stroke-opacity: 1.0" stroke-width="3px" stroke-linecap="round" /><path d=" M529.618 192.13 L568.589 169.63" style="stroke: #ff40ff; stroke-opacity: 1.0" stroke-width="3px" stroke-linecap="round" /><path d=" M217.848 462.13 L189.767 445.917" style="stroke: #008f51; stroke-opacity: 1.0" stroke-width="3px" stroke-linecap="round" /><path d=" M490.646 169.63 L529.618 192.13" style="stroke: #ff40ff; stroke-opacity: 1.0" stroke-width="3px" stroke-linecap="round" /><path d=" M462.565 108.417 L490.646 124.63" style="stroke: #000000; stroke-opacity: 1.0" stroke-width="3px" stroke-linecap="round" /><path d=" M195.348 624.043 L217.848 663.014" style="stroke: #008f51; stroke-opacity: 1.0" stroke-width="3px" stroke-linecap="round" /><path d=" M451.675 327.13 L490.646 304.63" style="stroke: #ff40ff; stroke-opacity: 1.0" stroke-width="3px" stroke-linecap="round" /><path d=" M351.233 857.87 L373.733 896.841" style="stroke: #011892; stroke-opacity: 1.0" stroke-width="3px" stroke-linecap="round" /><path d=" M284.901 378.417 L256.82 394.63" style="stroke: #008f51; stroke-opacity: 1.0" stroke-width="3px" stroke-linecap="round" /><path d=" M412.704 270.143 L412.704 304.63" style="stroke: #ff40ff; stroke-opacity: 1.0" stroke-width="3px" stroke-linecap="round" /><path d=" M256.82 439.63 L285.68 456.293" style="stroke: #008f51; stroke-opacity: 1.0" stroke-width="3px" stroke-linecap="round" /><path d=" M650.531 171.073 L650.531 135.143 M642.531 171.073 L642.531 135.143" style="stroke: #ff40ff; stroke-opacity: 1.0" stroke-width="3px" stroke-linecap="round" /><path d=" M373.733 974.784 L351.233 1013.75" style="stroke: #011892; stroke-opacity: 1.0" stroke-width="3px" stroke-linecap="round" /><path d=" M338.762 441.073 L338.762 405.148 M330.762 441.073 L330.762 405.148" style="stroke: #011892; stroke-opacity: 1.0" stroke-width="3px" stroke-linecap="round" /><path d=" M217.848 818.899 L195.348 857.87" style="stroke: #008f51; stroke-opacity: 1.0" stroke-width="3px" stroke-linecap="round" /><path d=" M490.646 259.63 L519.507 242.967" style="stroke: #ff40ff; stroke-opacity: 1.0" stroke-width="3px" stroke-linecap="round" /><path d=" M217.848 462.13 L217.848 507.13" style="stroke: #008f51; stroke-opacity: 1.0" stroke-width="3px" stroke-linecap="round" /><path d=" M217.848 896.841 L195.348 935.812" style="stroke: #008f51; stroke-opacity: 1.0" stroke-width="3px" stroke-linecap="round" /><path d=" M334.762 135.148 L334.762 169.63" style="stroke: #000000; stroke-opacity: 1.0" stroke-width="3px" stroke-linecap="round" /><path d=" M617.67 186.293 L646.531 169.63" style="stroke: #ff40ff; stroke-opacity: 1.0" stroke-width="3px" stroke-linecap="round" /><path d=" M568.589 124.63 L540.507 108.417" style="stroke: #ff40ff; stroke-opacity: 1.0" stroke-width="3px" stroke-linecap="round" /><path d=" M518.728 108.417 L490.646 124.63" style="stroke: #ff40ff; stroke-opacity: 1.0" stroke-width="3px" stroke-linecap="round" /><path d=" M373.733 585.072 L351.233 624.043" style="stroke: #011892; stroke-opacity: 1.0" stroke-width="3px" stroke-linecap="round" /><path d=" M451.675 202.648 L451.675 237.13" style="stroke: #000000; stroke-opacity: 1.0" stroke-width="3px" stroke-linecap="round" /><path d=" M568.589 169.63 L597.45 186.293" style="stroke: #ff40ff; stroke-opacity: 1.0" stroke-width="3px" stroke-linecap="round" /><path d=" M539.728 242.967 L568.589 259.63" style="stroke: #ff40ff; stroke-opacity: 1.0" stroke-width="3px" stroke-linecap="round" /><path d=" M412.704 304.63 L451.675 327.13" style="stroke: #ff40ff; stroke-opacity: 1.0" stroke-width="3px" stroke-linecap="round" /><path d=" M451.675 237.13 L423.594 253.343" style="stroke: #ff40ff; stroke-opacity: 1.0" stroke-width="3px" stroke-linecap="round" /><path d=" M412.704 169.63 L440.786 185.843" style="stroke: #000000; stroke-opacity: 1.0" stroke-width="3px" stroke-linecap="round" /><path d=" M295.791 237.13 L295.791 202.648" style="stroke: #000000; stroke-opacity: 1.0" stroke-width="3px" stroke-linecap="round" /><path d=" M217.848 585.072 L195.348 624.043" style="stroke: #008f51; stroke-opacity: 1.0" stroke-width="3px" stroke-linecap="round" /><path d=" M334.762 439.63 L373.733 462.13" style="stroke: #011892; stroke-opacity: 1.0" stroke-width="3px" stroke-linecap="round" /><path d=" M295.791 327.13 L334.762 304.63" style="stroke: #000000; stroke-opacity: 1.0" stroke-width="3px" stroke-linecap="round" /><path d=" M334.762 304.63 L334.762 259.63" style="stroke: #000000; stroke-opacity: 1.0" stroke-width="3px" stroke-linecap="round" /><path d=" M373.733 462.13 L373.733 507.13" style="stroke: #011892; stroke-opacity: 1.0" stroke-width="3px" stroke-linecap="round" /><path d=" M351.233 779.928 L373.733 818.899" style="stroke: #011892; stroke-opacity: 1.0" stroke-width="3px" stroke-linecap="round" /><path d=" M306.68 185.843 L334.762 169.63" style="stroke: #000000; stroke-opacity: 1.0" stroke-width="3px" stroke-linecap="round" /><path d=" M295.791 237.13 L267.709 253.343" style="stroke: #000000; stroke-opacity: 1.0" stroke-width="3px" stroke-linecap="round" /><path d=" M373.733 740.957 L351.233 779.928" style="stroke: #011892; stroke-opacity: 1.0" stroke-width="3px" stroke-linecap="round" /><path d=" M373.733 896.841 L351.233 935.812" style="stroke: #011892; stroke-opacity: 1.0" stroke-width="3px" stroke-linecap="round" /><path d=" M564.589 258.186 L564.589 294.116 M572.589 258.186 L572.589 294.116" style="stroke: #ff40ff; stroke-opacity: 1.0" stroke-width="3px" stroke-linecap="round" /><path d=" M412.704 124.63 L373.733 102.13" style="stroke: #000000; stroke-opacity: 1.0" stroke-width="3px" stroke-linecap="round" /><path d=" M334.762 169.63 L373.733 192.13" style="stroke: #000000; stroke-opacity: 1.0" stroke-width="3px" stroke-linecap="round" /><text x="600.3382484856852" y="199.28801582346696" style="fill: #ff40ff; stroke-opacity: 0; fill-opacity: 1.0" font-family="Arial" font-size="20.0" font-weight="bold" font-style="normal">N</text><text x="600.3382484856852" y="215.75188301096696" style="fill: #ff40ff; stroke-opacity: 0; fill-opacity: 1.0" font-family="Arial" font-size="20.0" font-weight="bold" font-style="normal">H</text><text x="326.9836056685872" y="401.91496894846705" style="fill: #ff2600; stroke-opacity: 0; fill-opacity: 1.0" font-family="Arial" font-size="20.0" font-weight="normal" font-style="normal">O</text><text x="638.7527510309849" y="131.91008613596694" style="fill: #ff40ff; stroke-opacity: 0; fill-opacity: 1.0" font-family="Arial" font-size="20.0" font-weight="bold" font-style="normal">O</text><text x="249.04131932798765" y="266.9149689484671" style="fill: #000000; stroke-opacity: 0; fill-opacity: 1.0" font-family="Arial" font-size="20.0" font-weight="normal" font-style="normal">O</text><text x="443.8970351794863" y="109.41496894846696" style="fill: #000000; stroke-opacity: 0; fill-opacity: 1.0" font-family="Arial" font-size="20.0" font-weight="normal" font-style="normal">O</text><text x="404.9258920091866" y="266.910086135967" style="fill: #ff40ff; stroke-opacity: 0; fill-opacity: 1.0" font-family="Arial" font-size="20.0" font-weight="bold" font-style="normal">O</text><text x="171.09903298738823" y="446.91496894846705" style="fill: #ff2600; stroke-opacity: 0; fill-opacity: 1.0" font-family="Arial" font-size="20.0" font-weight="normal" font-style="normal">O</text><text x="156.65567361238823" y="447.04192207346705" style="fill: #ff2600; stroke-opacity: 0; fill-opacity: 1.0" font-family="Arial" font-size="20.0" font-weight="normal" font-style="normal">H</text><text x="288.01246249828745" y="379.41496894846705" style="fill: #ff2600; stroke-opacity: 0; fill-opacity: 1.0" font-family="Arial" font-size="20.0" font-weight="normal" font-style="normal">O</text><text x="443.89703517948635" y="199.414968948467" style="fill: #000000; stroke-opacity: 0; fill-opacity: 1.0" font-family="Arial" font-size="20.0" font-weight="normal" font-style="normal">O</text><text x="521.8393215200858" y="109.41008613596696" style="fill: #ff40ff; stroke-opacity: 0; fill-opacity: 1.0" font-family="Arial" font-size="20.0" font-weight="bold" font-style="normal">O</text><text x="560.8104646903855" y="311.91008613596694" style="fill: #ff40ff; stroke-opacity: 0; fill-opacity: 1.0" font-family="Arial" font-size="20.0" font-weight="bold" font-style="normal">O</text><text x="326.98360566858713" y="131.91496894846702" style="fill: #000000; stroke-opacity: 0; fill-opacity: 1.0" font-family="Arial" font-size="20.0" font-weight="normal" font-style="normal">O</text><text x="288.56910312328745" y="469.28801582346705" style="fill: #011892; stroke-opacity: 0; fill-opacity: 1.0" font-family="Arial" font-size="20.0" font-weight="normal" font-style="normal">N</text><text x="288.56910312328745" y="485.75188301096705" style="fill: #011892; stroke-opacity: 0; fill-opacity: 1.0" font-family="Arial" font-size="20.0" font-weight="normal" font-style="normal">H</text><text x="522.3959621450858" y="244.28801582346696" style="fill: #ff40ff; stroke-opacity: 0; fill-opacity: 1.0" font-family="Arial" font-size="20.0" font-weight="bold" font-style="normal">N</text><text x="522.3959621450858" y="227.82414863596696" style="fill: #ff40ff; stroke-opacity: 0; fill-opacity: 1.0" font-family="Arial" font-size="20.0" font-weight="bold" font-style="normal">H</text><text x="288.0124624982874" y="199.41496894846705" style="fill: #000000; stroke-opacity: 0; fill-opacity: 1.0" font-family="Arial" font-size="20.0" font-weight="normal" font-style="normal">O</text></svg>